<svg xmlns="http://www.w3.org/2000/svg" width="155" height="23" viewBox="0 0 155 23">
  <g fill="none" fill-rule="evenodd">
    <path fill="#2B3695" fill-rule="nonzero" d="M48.426817,15.5978808 C49.3311351,15.7059584 50.3136537,15.406744 50.9803224,14.855348 C51.7433186,14.2098856 52.4290769,12.8779304 52.4290769,11.4318936 C52.4290769,9.834748 51.4004394,9.644612 51.01842,9.644612 C50.4660441,9.644612 50.0469698,9.929816 49.6469042,10.1960072 L48.426817,15.5978808 Z M49.9707746,8.3136576 C50.4660441,7.971412 51.2851039,7.4000024 52.5242808,7.4000024 C54.4291637,7.4000024 55.7064382,8.8260248 55.7064382,11.2417568 C55.7064382,12.6117392 55.2302575,14.2278984 54.2386757,15.4267584 C52.3528809,17.727408 49.9707746,17.7083944 47.9505562,17.7083944 L46.865775,22.2546544 L46.733436,22.3497224 C46.2943103,22.3497224 45.8752359,22.329708 45.4371529,22.329708 C44.7894922,22.329708 44.2180274,22.368776 43.5131803,22.3877496 L43.4169336,22.2546544 C43.4169336,22.2546544 44.0886556,20.238208 44.9238372,16.7727232 C45.8010452,13.1361152 46.6211478,8.8760608 46.6933331,8.0084384 L46.8267148,7.8753432 L50.0850674,7.3439624 L50.2003227,7.4760568 L49.9707746,8.3136576 Z M43.0760598,17.499244 L42.9236694,17.6513536 C42.3130644,17.766436 41.5972289,17.8605032 41.2082317,17.8605032 C39.7695839,17.8605032 37.6581714,17.643348 38.5524638,14.0207496 C39.1549682,11.5709936 39.5891216,9.73968 39.5891216,9.73968 L38.2547409,9.7777072 L38.1403671,9.6255984 L38.6937865,7.7042208 L38.8271682,7.6101528 L40.0843912,7.6101528 L40.636767,5.1553928 L40.7701487,5.0232976 C42.1998135,4.7000664 42.5797475,4.6039976 43.8951196,4.2237248 L44.0094124,4.3378064 L43.1712645,7.64818 L45.114245,7.6101528 L45.1912425,7.742248 C44.9235158,8.54082 44.8473206,8.7509712 44.5997263,9.644612 L44.4473351,9.7777072 L42.6948426,9.73968 C42.6948426,9.73968 42.3388905,11.2157384 41.8406531,13.270212 C41.3022326,15.4928056 41.5849574,15.378724 42.1243405,15.590876 C42.585523,15.7730064 43.1901121,15.54084 43.5329913,15.4267584 L43.6472841,15.5218264 L43.0758193,17.499244 L43.0760598,17.499244 Z M32.4257985,9.3974344 C31.5295006,9.3974344 30.5158621,9.8527608 29.9303611,12.6227472 C29.2797333,15.7049576 30.5770589,15.9020992 31.2066729,15.9020992 C31.7781378,15.9020992 32.9952579,15.590876 33.5997677,12.63976 C34.0238946,10.57628 33.6879939,9.3974344 32.4257985,9.3974344 Z M36.8752038,12.63976 C36.0560647,17.304104 33.1486109,17.8985304 30.6873417,17.8985304 C28.2580742,17.8985304 26.0183327,16.2283328 26.6520372,12.6167432 C27.1472266,9.7937184 28.8265716,7.1818456 32.909037,7.3809888 C35.7563357,7.520088 37.4315903,9.4684856 36.8752038,12.63976 Z"/>
    <text fill="#FFF" font-family="SFProText-SemiboldItalic, SF Pro Text" font-size="17.6" font-style="italic" font-weight="500" letter-spacing="-.44">
      <tspan x="57.786" y="17">rainsurance</tspan>
    </text>
    <g fill-rule="nonzero">
      <path fill="#2B3695" d="M14.8476887,4.34818009 C15.0284819,3.43307274 15.651228,2.67628316 16.4847255,2.30857606 C16.9136248,2.10340846 17.367283,2.04116577 17.7987235,2.07319905 C18.1584468,2.09428 18.5001714,2.18226676 18.8115741,2.32486559 C19.0977155,2.44865709 19.345074,2.60600752 19.5302386,2.77267246 C20.044696,3.23573081 20.657479,4.15173434 20.4243044,5.3885274 C20.3921838,5.57233369 20.3422984,5.75004762 20.2764794,5.91984329 C20.2408915,6.0168655 20.2000517,6.11551458 20.1535874,6.2157384 C19.9410931,6.67409088 19.4570524,7.21951648 18.7790615,7.49182274 C18.7470772,7.50466881 18.7154529,7.51662513 18.6841555,7.52782208 C18.4843865,7.60768987 18.2734013,7.66553639 18.0542164,7.69835374 C17.6835273,7.78982425 17.3284745,7.91000174 16.9147965,8.35112327 C16.2447591,9.06561114 16.3104621,10.770149 16.3104621,11.1552804 C16.3104621,13.8827364 14.0957848,16.0943224 11.3627385,16.0943224 C8.62973259,16.0943224 6.41457396,13.8827364 6.41457396,11.1552804 C6.41457396,8.4273244 8.62973259,6.2157384 11.3627385,6.2157384 C11.792983,6.2157384 13.4811123,6.54889065 14.1068772,5.91634182 C14.542683,5.47581148 14.6749775,4.91360035 14.8476887,4.34818009 Z"/>
      <path fill="#FFF" d="M0.180593212,11.1552804 C0.180593212,5.0098736 5.16785796,0.0278012 11.3221547,0.02029584 L11.3221547,4.0441812 C7.39356367,4.0511864 4.21144636,7.2319672 4.21144636,11.1552804 C4.21144636,15.0825968 7.4011028,18.2658796 11.335188,18.2658796 C15.2462137,18.2658796 18.4594509,15.1126184 18.4594509,11.1282612 L22.490264,11.1306612 C22.490264,17.3045884 17.4964624,22.2891628 11.335188,22.2891628 C5.17439484,22.2891628 0.180593212,17.3045884 0.180593212,11.1551788"/>
    </g>
  </g>
</svg>
